{
  "accessors": [
    {
      "bufferView": 2,
      "componentType": 5126,
      "count": 31,
      "max": [
        84.242729187011719,
        -37.092540740966797,
        41.011211395263672
      ],
      "min": [
        -46.774299621582031,
        -39.378654479980469,
        38.859657287597656
      ],
      "type": "VEC3"
    },
    {
      "bufferView": 2,
      "byteOffset": 372,
      "componentType": 5126,
      "count": 31,
      "max": [
        1,
        1,
        1
      ],
      "min": [
        -1,
        -1,
        -1
      ],
      "type": "VEC3"
    },
    {
      "bufferView": 3,
      "componentType": 5126,
      "count": 31,
      "max": [
        1,
        1,
        1,
        1
      ],
      "min": [
        1,
        1,
        1,
        1
      ],
      "type": "VEC4"
    },
    {
      "bufferView": 1,
      "componentType": 5126,
      "count": 31,
      "max": [
        0.99950051307678223,
        0.99950063228607178
      ],
      "min": [
        0.00049933791160583496,
        0.00050213932991027832
      ],
      "type": "VEC2"
    },
    {
      "bufferView": 0,
      "componentType": 5125,
      "count": 36,
      "max": [
        30
      ],
      "min": [
        0
      ],
      "type": "SCALAR"
    },
    {
      "bufferView": 2,
      "byteOffset": 744,
      "componentType": 5126,
      "count": 1585,
      "max": [
        82.96246337890625,
        -37.092571258544922,
        38.946819305419922
      ],
      "min": [
        -45.002124786376953,
        -39.378692626953125,
        -19.786235809326172
      ],
      "type": "VEC3"
    },
    {
      "bufferView": 2,
      "byteOffset": 19764,
      "componentType": 5126,
      "count": 1585,
      "max": [
        1,
        1,
        1
      ],
      "min": [
        -1,
        -1,
        -1
      ],
      "type": "VEC3"
    },
    {
      "bufferView": 3,
      "byteOffset": 496,
      "componentType": 5126,
      "count": 1585,
      "max": [
        1,
        1,
        1,
        1
      ],
      "min": [
        1,
        1,
        1,
        1
      ],
      "type": "VEC4"
    },
    {
      "bufferView": 1,
      "byteOffset": 248,
      "componentType": 5126,
      "count": 1585,
      "max": [
        0.99950027465820312,
        0.99948859214782715
      ],
      "min": [
        0.0005022585391998291,
        0.00049948692321777344
      ],
      "type": "VEC2"
    },
    {
      "bufferView": 0,
      "byteOffset": 144,
      "componentType": 5125,
      "count": 2028,
      "max": [
        1584
      ],
      "min": [
        0
      ],
      "type": "SCALAR"
    },
    {
      "bufferView": 2,
      "byteOffset": 38784,
      "componentType": 5126,
      "count": 83,
      "max": [
        80.768623352050781,
        -38.856849670410156,
        38.946819305419922
      ],
      "min": [
        -43.037982940673828,
        -38.968643188476562,
        -19.143133163452148
      ],
      "type": "VEC3"
    },
    {
      "bufferView": 2,
      "byteOffset": 39780,
      "componentType": 5126,
      "count": 83,
      "max": [
        0.85684168338775635,
        1,
        1
      ],
      "min": [
        -0.85691946744918823,
        -1,
        -1
      ],
      "type": "VEC3"
    },
    {
      "bufferView": 3,
      "byteOffset": 25856,
      "componentType": 5126,
      "count": 83,
      "max": [
        1,
        1,
        1,
        1
      ],
      "min": [
        1,
        1,
        1,
        1
      ],
      "type": "VEC4"
    },
    {
      "bufferView": 1,
      "byteOffset": 12928,
      "componentType": 5126,
      "count": 83,
      "max": [
        0.97301042079925537,
        0.96557909250259399
      ],
      "min": [
        0.026989549398422241,
        0.011066704988479614
      ],
      "type": "VEC2"
    },
    {
      "bufferView": 0,
      "byteOffset": 8256,
      "componentType": 5125,
      "count": 144,
      "max": [
        82
      ],
      "min": [
        0
      ],
      "type": "SCALAR"
    }
  ],
  "asset": {
    "extras": {
      "author": "James (https://sketchfab.com/james)",
      "license": "CC-BY-4.0 (http://creativecommons.org/licenses/by/4.0/)",
      "source": "https://sketchfab.com/3d-models/window-blinds-883b037fccfd48d1910e1c1b799381c5",
      "title": "Window Blinds"
    },
    "generator": "Sketchfab-8.51.0",
    "version": "2.0"
  },
  "bufferViews": [
    {
      "buffer": 0,
      "byteLength": 8832,
      "byteOffset": 0,
      "name": "floatBufferViews",
      "target": 34963
    },
    {
      "buffer": 0,
      "byteLength": 13592,
      "byteOffset": 8832,
      "byteStride": 8,
      "name": "floatBufferViews",
      "target": 34962
    },
    {
      "buffer": 0,
      "byteLength": 40776,
      "byteOffset": 22424,
      "byteStride": 12,
      "name": "floatBufferViews",
      "target": 34962
    },
    {
      "buffer": 0,
      "byteLength": 27184,
      "byteOffset": 63200,
      "byteStride": 16,
      "name": "floatBufferViews",
      "target": 34962
    }
  ],
  "buffers": [
    {
      "byteLength": 90384,
      "uri": "scene.bin"
    }
  ],
  "materials": [
    {
      "alphaMode": "BLEND",
      "doubleSided": true,
      "emissiveFactor": [
        0,
        0,
        0
      ],
      "name": "white_fin_trans",
      "pbrMetallicRoughness": {
        "baseColorFactor": [
          0.86274499999999998,
          0.86274499999999998,
          0.86274499999999998,
          0.29999999999999999
        ],
        "metallicFactor": 0,
        "roughnessFactor": 0.20000000000000001
      }
    },
    {
      "doubleSided": true,
      "emissiveFactor": [
        0,
        0,
        0
      ],
      "name": "thread",
      "pbrMetallicRoughness": {
        "baseColorFactor": [
          0.058823500000000001,
          0.058823500000000001,
          0.058823500000000001,
          1
        ],
        "metallicFactor": 0,
        "roughnessFactor": 0.20000000000000001
      }
    },
    {
      "doubleSided": true,
      "emissiveFactor": [
        0,
        0,
        0
      ],
      "name": "white_plas",
      "pbrMetallicRoughness": {
        "baseColorFactor": [
          0.86666699999999997,
          0.86666699999999997,
          0.86666699999999997,
          1
        ],
        "metallicFactor": 0,
        "roughnessFactor": 0.20000000000000001
      }
    }
  ],
  "meshes": [
    {
      "primitives": [
        {
          "attributes": {
            "COLOR_0": 2,
            "NORMAL": 1,
            "POSITION": 0,
            "TEXCOORD_0": 3
          },
          "indices": 4,
          "material": 2,
          "mode": 4
        }
      ]
    },
    {
      "primitives": [
        {
          "attributes": {
            "COLOR_0": 7,
            "NORMAL": 6,
            "POSITION": 5,
            "TEXCOORD_0": 8
          },
          "indices": 9,
          "material": 0,
          "mode": 4
        }
      ]
    },
    {
      "primitives": [
        {
          "attributes": {
            "COLOR_0": 12,
            "NORMAL": 11,
            "POSITION": 10,
            "TEXCOORD_0": 13
          },
          "indices": 14,
          "material": 1,
          "mode": 4
        }
      ]
    }
  ],
  "nodes": [
    {
      "children": [
        1
      ],
      "name": "RootNode (gltf orientation matrix)",
      "rotation": [
        -0.70710678118654746,
        -0,
        -0,
        0.70710678118654757
      ]
    },
    {
      "children": [
        2
      ],
      "matrix": [
        0.013706576079130173,
        0,
        0,
        0,
        0,
        0.013706576079130173,
        0,
        0,
        0,
        0,
        0.013706576079130173,
        0,
        0,
        0,
        0,
        1
      ],
      "name": "RootNode (model correction matrix)"
    },
    {
      "children": [
        3
      ],
      "matrix": [
        0.59621405601501465,
        0,
        0,
        0,
        0,
        0.59621405601501465,
        0,
        0,
        0,
        0,
        0.59621405601501465,
        0,
        80.686569213867188,
        -56.399967193603516,
        9.9018211364746094,
        1
      ],
      "name": "Blinds"
    },
    {
      "children": [
        4,
        5,
        6
      ],
      "matrix": [
        1.6772499573120039,
        0,
        0,
        0,
        0,
        1.6772499573120039,
        0,
        0,
        0,
        0,
        1.6772499573120039,
        0,
        -25.457391632403755,
        64.677801887938273,
        34.378430381986078,
        1
      ],
      "name": "3DSMeshMatrix"
    },
    {
      "mesh": 0,
      "name": ""
    },
    {
      "mesh": 1,
      "name": ""
    },
    {
      "mesh": 2,
      "name": ""
    }
  ],
  "scene": 0,
  "scenes": [
    {
      "name": "OSG_Scene",
      "nodes": [
        0
      ]
    }
  ]
}

