{
  "accessors": [
    {
      "bufferView": 1,
      "componentType": 5126,
      "count": 13751,
      "max": [
        1.0516883134841919,
        1.0576006174087524,
        1.0517174005508423
      ],
      "min": [
        -1.0516883134841919,
        -1.0576006174087524,
        -1.0517829656600952
      ],
      "type": "VEC3"
    },
    {
      "bufferView": 1,
      "byteOffset": 165012,
      "componentType": 5126,
      "count": 13751,
      "max": [
        0.999988853931427,
        1,
        0.99998980760574341
      ],
      "min": [
        -0.99998891353607178,
        -1,
        -0.99999088048934937
      ],
      "type": "VEC3"
    },
    {
      "bufferView": 2,
      "componentType": 5126,
      "count": 13751,
      "max": [
        1,
        0.94683676958084106,
        1,
        1
      ],
      "min": [
        -0.95677918195724487,
        -0.94683492183685303,
        -1,
        1
      ],
      "type": "VEC4"
    },
    {
      "bufferView": 0,
      "componentType": 5125,
      "count": 79866,
      "max": [
        13750
      ],
      "min": [
        0
      ],
      "type": "SCALAR"
    },
    {
      "bufferView": 1,
      "byteOffset": 330024,
      "componentType": 5126,
      "count": 10750,
      "max": [
        0.79624700546264648,
        0.85771113634109497,
        0.795859694480896
      ],
      "min": [
        -0.79611396789550781,
        -0.85322713851928711,
        -0.79058164358139038
      ],
      "type": "VEC3"
    },
    {
      "bufferView": 1,
      "byteOffset": 459024,
      "componentType": 5126,
      "count": 10750,
      "max": [
        0.95955151319503784,
        0.99445754289627075,
        0.92273956537246704
      ],
      "min": [
        -0.95856392383575439,
        -0.96933424472808838,
        -0.92070853710174561
      ],
      "type": "VEC3"
    },
    {
      "bufferView": 2,
      "byteOffset": 220016,
      "componentType": 5126,
      "count": 10750,
      "max": [
        1,
        0.93595612049102783,
        0.99999904632568359,
        1
      ],
      "min": [
        -0.92038309574127197,
        -0.93581360578536987,
        -0.99999904632568359,
        1
      ],
      "type": "VEC4"
    },
    {
      "bufferView": 0,
      "byteOffset": 319464,
      "componentType": 5125,
      "count": 61446,
      "max": [
        10749
      ],
      "min": [
        0
      ],
      "type": "SCALAR"
    }
  ],
  "asset": {
    "extras": {
      "author": "ingscappatura (https://sketchfab.com/ingscappatura)",
      "license": "CC-BY-NC-4.0 (http://creativecommons.org/licenses/by-nc/4.0/)",
      "source": "https://sketchfab.com/models/15bd6087617a4a379953550c56edb839",
      "title": "Tennis ball"
    },
    "generator": "Sketchfab-3.18.7",
    "version": "2.0"
  },
  "bufferViews": [
    {
      "buffer": 0,
      "byteLength": 565248,
      "byteOffset": 0,
      "name": "floatBufferViews",
      "target": 34963
    },
    {
      "buffer": 0,
      "byteLength": 588024,
      "byteOffset": 565248,
      "byteStride": 12,
      "name": "floatBufferViews",
      "target": 34962
    },
    {
      "buffer": 0,
      "byteLength": 392016,
      "byteOffset": 1153272,
      "byteStride": 16,
      "name": "floatBufferViews",
      "target": 34962
    }
  ],
  "buffers": [
    {
      "byteLength": 1545288,
      "uri": "scene.bin"
    }
  ],
  "materials": [
    {
      "doubleSided": true,
      "emissiveFactor": [
        0,
        0,
        0
      ],
      "name": "Paint_Matte_Yellow",
      "pbrMetallicRoughness": {
        "baseColorFactor": [
          0.88581299999999996,
          0.96887400000000001,
          0.0096116900000000009,
          1
        ],
        "metallicFactor": 0,
        "roughnessFactor": 0.95770514949999996
      }
    },
    {
      "doubleSided": true,
      "emissiveFactor": [
        0,
        0,
        0
      ],
      "name": "Paint_Matte_White",
      "pbrMetallicRoughness": {
        "baseColorFactor": [
          1,
          1,
          1,
          1
        ],
        "metallicFactor": 0,
        "roughnessFactor": 0.95770514949999996
      }
    }
  ],
  "meshes": [
    {
      "name": "pCube1_Paint Matte Yellow_0",
      "primitives": [
        {
          "attributes": {
            "NORMAL": 1,
            "POSITION": 0,
            "TANGENT": 2
          },
          "indices": 3,
          "material": 0,
          "mode": 4
        }
      ]
    },
    {
      "name": "pCube1_Paint Matte White_0",
      "primitives": [
        {
          "attributes": {
            "NORMAL": 5,
            "POSITION": 4,
            "TANGENT": 6
          },
          "indices": 7,
          "material": 1,
          "mode": 4
        }
      ]
    }
  ],
  "nodes": [
    {
      "children": [
        1
      ],
      "name": "RootNode (gltf orientation matrix)",
      "rotation": [
        -0.70710678118654746,
        -0,
        -0,
        0.70710678118654757
      ]
    },
    {
      "children": [
        2
      ],
      "name": "RootNode (model correction matrix)"
    },
    {
      "children": [
        3
      ],
      "matrix": [
        1,
        0,
        0,
        0,
        0,
        0,
        1,
        0,
        0,
        -1,
        0,
        0,
        0,
        0,
        0,
        1
      ],
      "name": "a1061c56f8be43349d958fd707254c72.fbx"
    },
    {
      "children": [
        4
      ],
      "name": "RootNode"
    },
    {
      "children": [
        5
      ],
      "name": "Default"
    },
    {
      "children": [
        6
      ],
      "matrix": [
        1,
        0,
        0,
        0,
        0,
        1,
        0,
        0,
        0,
        0,
        1,
        0,
        0,
        1.0576006174087524,
        3.2782554626464844e-05,
        1
      ],
      "name": "TennisBall"
    },
    {
      "children": [
        7
      ],
      "name": "RootNode"
    },
    {
      "children": [
        8
      ],
      "name": "pCube1"
    },
    {
      "children": [
        9,
        11
      ],
      "name": "pCube1"
    },
    {
      "children": [
        10
      ],
      "name": "pCube1"
    },
    {
      "mesh": 0,
      "name": "pCube1_Paint Matte Yellow_0"
    },
    {
      "children": [
        12
      ],
      "name": "pCube1"
    },
    {
      "mesh": 1,
      "name": "pCube1_Paint Matte White_0"
    }
  ],
  "scene": 0,
  "scenes": [
    {
      "name": "OSG_Scene",
      "nodes": [
        0
      ]
    }
  ]
}

