{
  "accessors": [
    {
      "bufferView": 2,
      "componentType": 5126,
      "count": 3509,
      "max": [
        1,
        1.0439021587371826,
        1
      ],
      "min": [
        -1,
        -0.53386306762695312,
        -1
      ],
      "type": "VEC3"
    },
    {
      "bufferView": 2,
      "byteOffset": 42108,
      "componentType": 5126,
      "count": 3509,
      "max": [
        1,
        1,
        1
      ],
      "min": [
        -1,
        -1,
        -1
      ],
      "type": "VEC3"
    },
    {
      "bufferView": 1,
      "componentType": 5126,
      "count": 3509,
      "max": [
        9.8689136505126953,
        1.9996485710144043
      ],
      "min": [
        2.7939677238464355e-07,
        0.010004970245063305
      ],
      "type": "VEC2"
    },
    {
      "bufferView": 0,
      "componentType": 5125,
      "count": 9603,
      "max": [
        3508
      ],
      "min": [
        0
      ],
      "type": "SCALAR"
    },
    {
      "bufferView": 2,
      "byteOffset": 84216,
      "componentType": 5126,
      "count": 1919,
      "max": [
        0.98294556140899658,
        0.93704253435134888,
        0.96232390403747559
      ],
      "min": [
        -0.98294585943222046,
        -0.82420921325683594,
        -0.97585511207580566
      ],
      "type": "VEC3"
    },
    {
      "bufferView": 2,
      "byteOffset": 107244,
      "componentType": 5126,
      "count": 1919,
      "max": [
        1,
        1,
        1
      ],
      "min": [
        -1,
        -1,
        -1
      ],
      "type": "VEC3"
    },
    {
      "bufferView": 1,
      "byteOffset": 28072,
      "componentType": 5126,
      "count": 1919,
      "max": [
        5.8955445289611816,
        1.1945831775665283
      ],
      "min": [
        -4.8553318977355957,
        -0.16220533847808838
      ],
      "type": "VEC2"
    },
    {
      "bufferView": 0,
      "byteOffset": 38412,
      "componentType": 5125,
      "count": 5832,
      "max": [
        1918
      ],
      "min": [
        0
      ],
      "type": "SCALAR"
    },
    {
      "bufferView": 2,
      "byteOffset": 130272,
      "componentType": 5126,
      "count": 232,
      "max": [
        0.84262192249298096,
        1.0237747430801392,
        0.84262192249298096
      ],
      "min": [
        -0.84262198209762573,
        0.81318461894989014,
        -0.84262192249298096
      ],
      "type": "VEC3"
    },
    {
      "bufferView": 2,
      "byteOffset": 133056,
      "componentType": 5126,
      "count": 232,
      "max": [
        0.22190140187740326,
        1,
        0.40694817900657654
      ],
      "min": [
        -0.22190140187740326,
        0.91324132680892944,
        -0
      ],
      "type": "VEC3"
    },
    {
      "bufferView": 1,
      "byteOffset": 43424,
      "componentType": 5126,
      "count": 232,
      "max": [
        0.82359075546264648,
        0.88573014736175537
      ],
      "min": [
        0.13113173842430115,
        0.063188254833221436
      ],
      "type": "VEC2"
    },
    {
      "bufferView": 0,
      "byteOffset": 61740,
      "componentType": 5125,
      "count": 711,
      "max": [
        231
      ],
      "min": [
        0
      ],
      "type": "SCALAR"
    },
    {
      "bufferView": 2,
      "byteOffset": 135840,
      "componentType": 5126,
      "count": 957,
      "max": [
        0.30901771783828735,
        1.1190426349639893,
        1
      ],
      "min": [
        -0.30901569128036499,
        -0.43600508570671082,
        0.86366951465606689
      ],
      "type": "VEC3"
    },
    {
      "bufferView": 2,
      "byteOffset": 147324,
      "componentType": 5126,
      "count": 957,
      "max": [
        1,
        1,
        1
      ],
      "min": [
        -0.99988460540771484,
        -1,
        -1
      ],
      "type": "VEC3"
    },
    {
      "bufferView": 1,
      "byteOffset": 45280,
      "componentType": 5126,
      "count": 957,
      "max": [
        0.55000042915344238,
        0.86259496212005615
      ],
      "min": [
        0.45000040531158447,
        0.5926741361618042
      ],
      "type": "VEC2"
    },
    {
      "bufferView": 0,
      "byteOffset": 64584,
      "componentType": 5125,
      "count": 4041,
      "max": [
        956
      ],
      "min": [
        0
      ],
      "type": "SCALAR"
    },
    {
      "bufferView": 2,
      "byteOffset": 158808,
      "componentType": 5126,
      "count": 26,
      "max": [
        0.20787936449050903,
        0.74347251653671265,
        0.99258822202682495
      ],
      "min": [
        -0.20787988603115082,
        0.57497555017471313,
        0.9707409143447876
      ],
      "type": "VEC3"
    },
    {
      "bufferView": 2,
      "byteOffset": 159120,
      "componentType": 5126,
      "count": 26,
      "max": [
        0.15641078352928162,
        0,
        -0.98769217729568481
      ],
      "min": [
        -0.15641078352928162,
        0,
        -1
      ],
      "type": "VEC3"
    },
    {
      "bufferView": 1,
      "byteOffset": 52936,
      "componentType": 5126,
      "count": 26,
      "max": [
        0.53332841396331787,
        0.86259478330612183
      ],
      "min": [
        0.46667209267616272,
        0.81965851783752441
      ],
      "type": "VEC2"
    },
    {
      "bufferView": 0,
      "byteOffset": 80748,
      "componentType": 5125,
      "count": 72,
      "max": [
        25
      ],
      "min": [
        0
      ],
      "type": "SCALAR"
    },
    {
      "bufferView": 2,
      "byteOffset": 159432,
      "componentType": 5126,
      "count": 264,
      "max": [
        0.28032374382019043,
        -0.0017112027853727341,
        0.18263016641139984
      ],
      "min": [
        -0.34451106190681458,
        -0.11839085817337036,
        -0.18105441331863403
      ],
      "type": "VEC3"
    },
    {
      "bufferView": 2,
      "byteOffset": 162600,
      "componentType": 5126,
      "count": 264,
      "max": [
        0.97984415292739868,
        0.99141120910644531,
        1
      ],
      "min": [
        -0.99854224920272827,
        -0.99438899755477905,
        -1
      ],
      "type": "VEC3"
    },
    {
      "bufferView": 1,
      "byteOffset": 53144,
      "componentType": 5126,
      "count": 264,
      "max": [
        0.3186383843421936,
        0.97381687164306641
      ],
      "min": [
        0.0062215337529778481,
        0.055051129311323166
      ],
      "type": "VEC2"
    },
    {
      "bufferView": 0,
      "byteOffset": 81036,
      "componentType": 5125,
      "count": 492,
      "max": [
        263
      ],
      "min": [
        0
      ],
      "type": "SCALAR"
    }
  ],
  "asset": {
    "extras": {
      "author": "PolyDucky (https://sketchfab.com/halpmehplzdaddy)",
      "license": "CC-BY-4.0 (http://creativecommons.org/licenses/by/4.0/)",
      "source": "https://sketchfab.com/3d-models/doomba-4ad5546749f54041a382d6313cedc0fc",
      "title": "Doomba"
    },
    "generator": "Sketchfab-7.68.0",
    "version": "2.0"
  },
  "bufferViews": [
    {
      "buffer": 0,
      "byteLength": 83004,
      "byteOffset": 0,
      "name": "floatBufferViews",
      "target": 34963
    },
    {
      "buffer": 0,
      "byteLength": 55256,
      "byteOffset": 83004,
      "byteStride": 8,
      "name": "floatBufferViews",
      "target": 34962
    },
    {
      "buffer": 0,
      "byteLength": 165768,
      "byteOffset": 138260,
      "byteStride": 12,
      "name": "floatBufferViews",
      "target": 34962
    }
  ],
  "buffers": [
    {
      "byteLength": 304028,
      "uri": "scene.bin"
    }
  ],
  "images": [
    {
      "uri": "textures/Shiny_metallicRoughness.png"
    },
    {
      "uri": "textures/Material.002_metallicRoughness.png"
    }
  ],
  "materials": [
    {
      "doubleSided": true,
      "emissiveFactor": [
        0,
        0,
        0
      ],
      "name": "DoombaMain",
      "pbrMetallicRoughness": {
        "baseColorFactor": [
          0.42319603069821599,
          0.42319603069821599,
          0.42319603069821599,
          1
        ],
        "metallicFactor": 1,
        "roughnessFactor": 0.29530302105527939
      }
    },
    {
      "doubleSided": true,
      "emissiveFactor": [
        0,
        0,
        0
      ],
      "name": "Shiny",
      "pbrMetallicRoughness": {
        "baseColorFactor": [
          0.18724094448678064,
          0.18724094448678064,
          0.18724094448678064,
          1
        ],
        "metallicFactor": 0.35318182742956911,
        "metallicRoughnessTexture": {
          "index": 0,
          "texCoord": 0
        },
        "roughnessFactor": 1
      }
    },
    {
      "doubleSided": true,
      "emissiveFactor": [
        0,
        0,
        0
      ],
      "name": "Material.002",
      "pbrMetallicRoughness": {
        "baseColorFactor": [
          0.057024972844932464,
          0.056483306019666731,
          0.056483306019666731,
          1
        ],
        "metallicFactor": 0,
        "metallicRoughnessTexture": {
          "index": 1,
          "texCoord": 0
        },
        "roughnessFactor": 1
      }
    },
    {
      "doubleSided": true,
      "emissiveFactor": [
        0,
        0,
        0
      ],
      "name": "DoombaMain.001",
      "pbrMetallicRoughness": {
        "baseColorFactor": [
          0.42326766998607168,
          0.42326766998607168,
          0.42326766998607168,
          1
        ],
        "metallicFactor": 1,
        "roughnessFactor": 0.29530302105527939
      }
    },
    {
      "doubleSided": true,
      "emissiveFactor": [
        0.604514,
        0.0051696599999999987,
        0
      ],
      "name": "Material.004",
      "pbrMetallicRoughness": {
        "baseColorFactor": [
          1,
          1,
          1,
          1
        ],
        "metallicFactor": 1,
        "roughnessFactor": 1
      }
    }
  ],
  "meshes": [
    {
      "primitives": [
        {
          "attributes": {
            "NORMAL": 1,
            "POSITION": 0,
            "TEXCOORD_0": 2
          },
          "indices": 3,
          "material": 0,
          "mode": 4
        }
      ]
    },
    {
      "primitives": [
        {
          "attributes": {
            "NORMAL": 5,
            "POSITION": 4,
            "TEXCOORD_0": 6
          },
          "indices": 7,
          "material": 1,
          "mode": 4
        }
      ]
    },
    {
      "primitives": [
        {
          "attributes": {
            "NORMAL": 9,
            "POSITION": 8,
            "TEXCOORD_0": 10
          },
          "indices": 11,
          "material": 2,
          "mode": 4
        }
      ]
    },
    {
      "primitives": [
        {
          "attributes": {
            "NORMAL": 13,
            "POSITION": 12,
            "TEXCOORD_0": 14
          },
          "indices": 15,
          "material": 3,
          "mode": 4
        }
      ]
    },
    {
      "primitives": [
        {
          "attributes": {
            "NORMAL": 17,
            "POSITION": 16,
            "TEXCOORD_0": 18
          },
          "indices": 19,
          "material": 4,
          "mode": 4
        }
      ]
    },
    {
      "primitives": [
        {
          "attributes": {
            "NORMAL": 21,
            "POSITION": 20,
            "TEXCOORD_0": 22
          },
          "indices": 23,
          "material": 0,
          "mode": 4
        }
      ]
    }
  ],
  "nodes": [
    {
      "children": [
        1
      ],
      "name": "RootNode (gltf orientation matrix)",
      "rotation": [
        -0.70710678118654746,
        -0,
        -0,
        0.70710678118654757
      ]
    },
    {
      "children": [
        2
      ],
      "name": "RootNode (model correction matrix)"
    },
    {
      "children": [
        3
      ],
      "name": "root"
    },
    {
      "children": [
        4,
        11
      ],
      "matrix": [
        1,
        0,
        0,
        0,
        0,
        2.2204460492503131e-16,
        1,
        0,
        0,
        -1,
        2.2204460492503131e-16,
        0,
        0,
        0,
        0,
        1
      ],
      "name": "GLTF_SceneRootNode"
    },
    {
      "children": [
        5,
        6,
        7,
        8
      ],
      "matrix": [
        2.4646527767181396,
        0,
        0,
        0,
        0,
        0.58098596334457397,
        0,
        0,
        0,
        0,
        2.4646527767181396,
        0,
        0,
        0,
        0,
        1
      ],
      "name": "Cylinder_2"
    },
    {
      "mesh": 0,
      "name": ""
    },
    {
      "mesh": 1,
      "name": ""
    },
    {
      "mesh": 2,
      "name": ""
    },
    {
      "children": [
        9,
        10
      ],
      "matrix": [
        1,
        0,
        0,
        0,
        0,
        1,
        0,
        0,
        0,
        0,
        1,
        0,
        0,
        0,
        0.0072926841676235199,
        1
      ],
      "name": "Cylinder.001_1"
    },
    {
      "mesh": 3,
      "name": ""
    },
    {
      "mesh": 4,
      "name": ""
    },
    {
      "children": [
        12
      ],
      "matrix": [
        0.88946753740310669,
        0,
        0,
        0,
        0,
        0.88946753740310669,
        0,
        0,
        0,
        0,
        0.88946753740310669,
        0,
        -0.0012925080955028534,
        0.54440855979919434,
        -1.6516540050506592,
        1
      ],
      "name": "Plane_4"
    },
    {
      "mesh": 5,
      "name": ""
    }
  ],
  "samplers": [
    {
      "magFilter": 9729,
      "minFilter": 9987,
      "wrapS": 10497,
      "wrapT": 10497
    }
  ],
  "scene": 0,
  "scenes": [
    {
      "name": "OSG_Scene",
      "nodes": [
        0
      ]
    }
  ],
  "textures": [
    {
      "sampler": 0,
      "source": 0
    },
    {
      "sampler": 0,
      "source": 1
    }
  ]
}

