{
  "accessors": [
    {
      "bufferView": 2,
      "componentType": 5126,
      "count": 12716,
      "max": [
        471.51290893554688,
        460.77633666992188,
        170.4051513671875
      ],
      "min": [
        -471.58242797851562,
        -482.1678466796875,
        -105.10019683837891
      ],
      "type": "VEC3"
    },
    {
      "bufferView": 2,
      "byteOffset": 152592,
      "componentType": 5126,
      "count": 12716,
      "max": [
        0.99995368719100952,
        0.99947303533554077,
        0.99999576807022095
      ],
      "min": [
        -0.99797862768173218,
        -0.9963194727897644,
        -0.9807053804397583
      ],
      "type": "VEC3"
    },
    {
      "bufferView": 3,
      "componentType": 5126,
      "count": 12716,
      "max": [
        0.9933207631111145,
        0.99947309494018555,
        0.98834240436553955,
        1
      ],
      "min": [
        -0.997550368309021,
        -0.99885189533233643,
        -0.79956865310668945,
        -1
      ],
      "type": "VEC4"
    },
    {
      "bufferView": 1,
      "componentType": 5126,
      "count": 12716,
      "max": [
        1,
        1
      ],
      "min": [
        0,
        0
      ],
      "type": "VEC2"
    },
    {
      "bufferView": 0,
      "componentType": 5125,
      "count": 55971,
      "max": [
        12715
      ],
      "min": [
        0
      ],
      "type": "SCALAR"
    }
  ],
  "asset": {
    "extras": {
      "author": "Andrea Nesta (https://sketchfab.com/andrea.nesta)",
      "license": "CC-BY-4.0 (http://creativecommons.org/licenses/by/4.0/)",
      "source": "https://sketchfab.com/models/07de2b503170432ca72c1f6cfeace05b",
      "title": "Folded Clothes - Square Scan Challenge"
    },
    "generator": "Sketchfab-3.18.7",
    "version": "2.0"
  },
  "bufferViews": [
    {
      "buffer": 0,
      "byteLength": 223884,
      "byteOffset": 0,
      "name": "floatBufferViews",
      "target": 34963
    },
    {
      "buffer": 0,
      "byteLength": 101728,
      "byteOffset": 223884,
      "byteStride": 8,
      "name": "floatBufferViews",
      "target": 34962
    },
    {
      "buffer": 0,
      "byteLength": 305184,
      "byteOffset": 325612,
      "byteStride": 12,
      "name": "floatBufferViews",
      "target": 34962
    },
    {
      "buffer": 0,
      "byteLength": 203456,
      "byteOffset": 630796,
      "byteStride": 16,
      "name": "floatBufferViews",
      "target": 34962
    }
  ],
  "buffers": [
    {
      "byteLength": 834252,
      "uri": "scene.bin"
    }
  ],
  "extensionsRequired": [
    "KHR_materials_pbrSpecularGlossiness"
  ],
  "extensionsUsed": [
    "KHR_materials_pbrSpecularGlossiness"
  ],
  "images": [
    {
      "uri": "textures/Material_Texture_diffuse.png"
    }
  ],
  "materials": [
    {
      "doubleSided": true,
      "extensions": {
        "KHR_materials_pbrSpecularGlossiness": {
          "diffuseFactor": [
            1,
            1,
            1,
            1
          ],
          "diffuseTexture": {
            "index": 0,
            "texCoord": 0
          },
          "glossinessFactor": 0.35804115849999996,
          "specularFactor": [
            0,
            0,
            0
          ]
        }
      },
      "name": "Material_Texture"
    }
  ],
  "meshes": [
    {
      "name": "Group_Global_0",
      "primitives": [
        {
          "attributes": {
            "NORMAL": 1,
            "POSITION": 0,
            "TANGENT": 2,
            "TEXCOORD_0": 3
          },
          "indices": 4,
          "material": 0,
          "mode": 4
        }
      ]
    }
  ],
  "nodes": [
    {
      "children": [
        1
      ],
      "name": "RootNode (gltf orientation matrix)",
      "rotation": [
        -0.70710678118654746,
        -0,
        -0,
        0.70710678118654757
      ]
    },
    {
      "children": [
        2
      ],
      "name": "RootNode (model correction matrix)"
    },
    {
      "children": [
        3
      ],
      "name": "Root"
    },
    {
      "children": [
        4
      ],
      "name": "Group_Global"
    },
    {
      "mesh": 0,
      "name": "Group_Global_0"
    }
  ],
  "samplers": [
    {
      "magFilter": 9729,
      "minFilter": 9987,
      "wrapS": 10497,
      "wrapT": 10497
    }
  ],
  "scene": 0,
  "scenes": [
    {
      "name": "OSG_Scene",
      "nodes": [
        0
      ]
    }
  ],
  "textures": [
    {
      "sampler": 0,
      "source": 0
    }
  ]
}

